<svg class="icon" viewBox="0 0 1024 1024" xmlns="http://www.w3.org/2000/svg" width="200" height="200"><defs><style/></defs><path d="M930.91 884.364V0H232.726v93.09h605.091v791.274z" fill="#515151"/><path d="M93.09 149.41v864.815c0 5.4 4.283 9.775 9.59 9.775h678.958c5.353 0 9.635-4.329 9.635-9.775V149.411c0-5.4-4.282-9.775-9.589-9.775H102.68c-5.306 0-9.588 4.33-9.588 9.775zm93.092 129.863h512v46.545h-512v-46.545zm0 139.636h512v46.546h-512v-46.546zm0 139.636h512v46.546h-512v-46.546zm0 139.637h512v46.545h-512v-46.545zm0 139.636H512v46.546H186.182v-46.546z" fill="#515151"/></svg>