<svg viewBox="0 0 960 720" fill="none" stroke-linecap="square" stroke-miterlimit="10" xmlns="http://www.w3.org/2000/svg"><clipPath id="a"><path d="M0 0h960v720H0V0z"/></clipPath><g clip-path="url(#a)"><path fill="#000" fill-opacity="0" d="M0 0h960v720H0z" fill-rule="evenodd"/><path fill="#cfe2f3" d="M346.328 360c0-66.065 53.557-119.622 119.622-119.622 66.066 0 119.622 53.557 119.622 119.622S532.016 479.622 465.95 479.622c-66.065 0-119.622-53.557-119.622-119.622z" fill-rule="evenodd"/><path fill="#a5b4c2" d="M415.166 324.224c0-6.882 5.579-12.46 12.46-12.46 6.883 0 12.461 5.578 12.461 12.46 0 6.882-5.578 12.46-12.46 12.46-6.882 0-12.46-5.578-12.46-12.46m76.646 0c0-6.882 5.579-12.46 12.46-12.46 6.882 0 12.461 5.578 12.461 12.46 0 6.882-5.579 12.46-12.46 12.46-6.882 0-12.461-5.578-12.461-12.46" fill-rule="evenodd"/><path fill="#000" fill-opacity="0" d="M401.114 412.168q64.836 44.528 129.52 0M346.328 360c0-66.065 53.557-119.622 119.622-119.622 66.066 0 119.622 53.557 119.622 119.622S532.016 479.622 465.95 479.622c-66.065 0-119.622-53.557-119.622-119.622z" fill-rule="evenodd"/><path stroke="#000" stroke-linejoin="round" stroke-linecap="butt" d="M415.166 324.224c0-6.882 5.579-12.46 12.46-12.46 6.883 0 12.461 5.578 12.461 12.46 0 6.882-5.578 12.46-12.46 12.46-6.882 0-12.46-5.578-12.46-12.46m76.646 0c0-6.882 5.579-12.46 12.46-12.46 6.882 0 12.461 5.578 12.461 12.46 0 6.882-5.579 12.46-12.46 12.46-6.882 0-12.461-5.578-12.461-12.46m-90.699 87.944q64.836 44.528 129.52 0" fill-rule="evenodd"/><path stroke="#000" stroke-linejoin="round" stroke-linecap="butt" d="M346.328 360c0-66.065 53.557-119.622 119.622-119.622 66.066 0 119.622 53.557 119.622 119.622S532.016 479.622 465.95 479.622c-66.065 0-119.622-53.557-119.622-119.622z" fill-rule="evenodd"/><path fill="#000" fill-opacity="0" d="M374.808 495.567h273.418v74.047H374.808z" fill-rule="evenodd"/><path fill="#000" d="M386.37 535.287V512.38h3.032v9.406h11.906v-9.406h3.032v22.906h-3.032V524.49h-11.906v10.797h-3.031zm34.017-5.344l2.906.36q-.688 2.546-2.547 3.953-1.86 1.406-4.75 1.406-3.64 0-5.781-2.234-2.125-2.25-2.125-6.297 0-4.188 2.156-6.5 2.156-2.313 5.594-2.313 3.328 0 5.437 2.266 2.11 2.265 2.11 6.375 0 .25-.016.75h-12.375q.156 2.734 1.547 4.187 1.39 1.453 3.469 1.453 1.546 0 2.64-.812 1.094-.813 1.735-2.594zm-9.235-4.547h9.266q-.188-2.093-1.063-3.14-1.343-1.625-3.484-1.625-1.938 0-3.266 1.297-1.312 1.296-1.453 3.468zm15.61 9.89v-22.905h2.812v22.906h-2.812zm7.109 0v-22.905h2.812v22.906h-2.812zm6.125-8.296q0-4.61 2.562-6.828 2.141-1.844 5.22-1.844 3.421 0 5.593 2.25 2.172 2.235 2.172 6.188 0 3.203-.969 5.047-.953 1.828-2.797 2.843-1.828 1.016-4 1.016-3.484 0-5.64-2.234-2.141-2.235-2.141-6.438zm2.89 0q0 3.188 1.391 4.781 1.39 1.578 3.5 1.578 2.094 0 3.485-1.593 1.39-1.594 1.39-4.86 0-3.078-1.406-4.656-1.39-1.594-3.469-1.594-2.11 0-3.5 1.578-1.39 1.579-1.39 4.766zm27.907 8.297l-5.078-16.594h2.906l2.64 9.578.985 3.563q.062-.266.86-3.422l2.64-9.719h2.89l2.485 9.625.828 3.172.953-3.203 2.844-9.594h2.734l-5.187 16.594h-2.922l-2.64-9.938-.641-2.828-3.36 12.766h-2.937zm19-8.297q0-4.61 2.562-6.828 2.14-1.844 5.219-1.844 3.422 0 5.594 2.25 2.172 2.235 2.172 6.188 0 3.203-.97 5.047-.952 1.828-2.796 2.843-1.828 1.016-4 1.016-3.484 0-5.64-2.234-2.141-2.235-2.141-6.438zm2.89 0q0 3.188 1.391 4.781 1.39 1.578 3.5 1.578 2.094 0 3.484-1.593 1.391-1.594 1.391-4.86 0-3.078-1.406-4.656-1.39-1.594-3.469-1.594-2.11 0-3.5 1.578-1.39 1.579-1.39 4.766zm15.922 8.297v-16.594h2.532v2.516q.968-1.766 1.78-2.328.829-.563 1.813-.563 1.422 0 2.89.906l-.968 2.61q-1.031-.61-2.062-.61-.922 0-1.657.563-.734.547-1.046 1.531-.47 1.5-.47 3.281v8.688h-2.812zm10.625 0V512.38h2.813v22.906h-2.813zm17.938 0v-2.094q-1.578 2.469-4.64 2.469-1.985 0-3.657-1.094-1.656-1.094-2.578-3.047-.906-1.968-.906-4.515 0-2.485.828-4.5.828-2.032 2.484-3.11 1.656-1.078 3.703-1.078 1.5 0 2.672.64 1.172.626 1.906 1.641v-8.218h2.797v22.906h-2.61zm-8.89-8.281q0 3.187 1.343 4.765 1.344 1.578 3.172 1.578 1.844 0 3.125-1.5 1.297-1.515 1.297-4.609 0-3.406-1.313-5-1.312-1.594-3.234-1.594-1.875 0-3.14 1.532-1.25 1.53-1.25 4.828z"/><path fill="#000" fill-opacity="0" d="M309.874 279.113l-80.882-131.024" fill-rule="evenodd"/><path stroke="#000" stroke-linejoin="round" stroke-linecap="butt" d="M309.874 279.113l-80.882-131.024" fill-rule="evenodd"/><path fill="#000" fill-opacity="0" d="M235.822 151.52l150.393 92.283" fill-rule="evenodd"/><path stroke="#000" stroke-linejoin="round" stroke-linecap="butt" d="M235.822 151.52l150.393 92.283" fill-rule="evenodd"/><path fill="#000" fill-opacity="0" d="M386.202 243.798l3.433 4.567" fill-rule="evenodd"/><path stroke="#000" stroke-linejoin="round" stroke-linecap="butt" d="M386.202 243.798l3.433 4.567" fill-rule="evenodd"/><path fill="#000" fill-opacity="0" d="M388.48 247.215L352.04 72.916" fill-rule="evenodd"/><path stroke="#000" stroke-linejoin="round" stroke-linecap="butt" d="M388.48 247.215L352.04 72.916" fill-rule="evenodd"/><path fill="#000" fill-opacity="0" d="M352.026 72.91L455.68 195.935" fill-rule="evenodd"/><path stroke="#000" stroke-linejoin="round" stroke-linecap="butt" d="M352.026 72.91L455.68 195.935" fill-rule="evenodd"/><path fill="#000" fill-opacity="0" d="M475.063 219.874L530.874 69.48" fill-rule="evenodd"/><path stroke="#000" stroke-linejoin="round" stroke-linecap="butt" d="M475.063 219.874L530.874 69.48" fill-rule="evenodd"/><path fill="#000" fill-opacity="0" d="M535.444 67.215l10.267 159.496" fill-rule="evenodd"/><path stroke="#000" stroke-linejoin="round" stroke-linecap="butt" d="M535.444 67.215l10.267 159.496" fill-rule="evenodd"/><path fill="#000" fill-opacity="0" d="M544.556 228.987L678.982 92.262" fill-rule="evenodd"/><path stroke="#000" stroke-linejoin="round" stroke-linecap="butt" d="M544.556 228.987L678.982 92.262" fill-rule="evenodd"/><path fill="#000" fill-opacity="0" d="M684.682 90l-88.85 154.93" fill-rule="evenodd"/><path stroke="#000" stroke-linejoin="round" stroke-linecap="butt" d="M684.682 90l-88.85 154.93" fill-rule="evenodd"/><path fill="#000" fill-opacity="0" d="M592.404 254.05l169.764-50.142" fill-rule="evenodd"/><path stroke="#000" stroke-linejoin="round" stroke-linecap="butt" d="M592.404 254.05l169.764-50.142" fill-rule="evenodd"/><path fill="#000" fill-opacity="0" d="M762.152 203.924L616.325 311.01" fill-rule="evenodd"/><path stroke="#000" stroke-linejoin="round" stroke-linecap="butt" d="M762.152 203.924L616.325 311.01" fill-rule="evenodd"/></g></svg>